<?xml version="1.0" encoding="UTF-8" standalone="no"?>
<!-- Created with Inkscape (http://www.inkscape.org/) -->

<svg
   xmlns:dc="http://purl.org/dc/elements/1.1/"
   xmlns:cc="http://creativecommons.org/ns#"
   xmlns:rdf="http://www.w3.org/1999/02/22-rdf-syntax-ns#"
   xmlns:svg="http://www.w3.org/2000/svg"
   xmlns="http://www.w3.org/2000/svg"
   xmlns:xlink="http://www.w3.org/1999/xlink"
   xmlns:sodipodi="http://sodipodi.sourceforge.net/DTD/sodipodi-0.dtd"
   xmlns:inkscape="http://www.inkscape.org/namespaces/inkscape"
   width="210.16193mm"
   height="210.16203mm"
   viewBox="0 0 744.66824 744.66862"
   id="svg3392"
   version="1.1"
   inkscape:version="0.91 r13725"
   sodipodi:docname="monthIcon.svg">
  <defs
     id="defs3394">
    <linearGradient
       inkscape:collect="always"
       id="linearGradient4218">
      <stop
         style="stop-color:#ffffff;stop-opacity:1;"
         offset="0"
         id="stop4220" />
      <stop
         style="stop-color:#ffffff;stop-opacity:0;"
         offset="1"
         id="stop4222" />
    </linearGradient>
    <linearGradient
       inkscape:collect="always"
       xlink:href="#linearGradient4218"
       id="linearGradient4224"
       x1="-660"
       y1="-93.352074"
       x2="-151.42856"
       y2="369.50507"
       gradientUnits="userSpaceOnUse"
       gradientTransform="translate(-3748.5714,-5060)" />
  </defs>
  <sodipodi:namedview
     id="base"
     pagecolor="#ffffff"
     bordercolor="#666666"
     borderopacity="0"
     inkscape:pageopacity="0"
     inkscape:pageshadow="2"
     inkscape:zoom="0.35"
     inkscape:cx="-88.048294"
     inkscape:cy="350.25177"
     inkscape:document-units="px"
     inkscape:current-layer="layer1"
     showgrid="false"
     inkscape:window-width="1366"
     inkscape:window-height="705"
     inkscape:window-x="-8"
     inkscape:window-y="-8"
     inkscape:window-maximized="1"
     showborder="true"
     fit-margin-top="0"
     fit-margin-left="0"
     fit-margin-right="0"
     fit-margin-bottom="0" />
  <metadata
     id="metadata3397">
    <rdf:RDF>
      <cc:Work
         rdf:about="">
        <dc:format>image/svg+xml</dc:format>
        <dc:type
           rdf:resource="http://purl.org/dc/dcmitype/StillImage" />
        <dc:title></dc:title>
      </cc:Work>
    </rdf:RDF>
  </metadata>
  <g
     inkscape:label="Livello 1"
     inkscape:groupmode="layer"
     id="layer1"
     transform="translate(-0.52298419,-167.17096)">
    <ellipse
       style="fill:#ffffff"
       id="path3406"
       cx="-1548.5714"
       cy="-744.78064"
       rx="177.14285"
       ry="174.28572" />
    <path
       style="fill:#ffffff"
       id="path3408"
       sodipodi:type="arc"
       sodipodi:cx="-1541.4286"
       sodipodi:cy="-557.63782"
       sodipodi:rx="4.2857141"
       sodipodi:ry="21.428572"
       sodipodi:start="0"
       sodipodi:end="5.2709883"
       d="m -1537.1429,-557.63782 a 4.2857141,21.428572 0 0 1 -3.2127,20.74615 4.2857141,21.428572 0 0 1 -4.8215,-10.35825 4.2857141,21.428572 0 0 1 0.7986,-25.93267 4.2857141,21.428572 0 0 1 5.2213,-2.62662 l -2.2714,18.17139 z" />
    <path
       style="fill:#ffffff"
       id="path3410"
       sodipodi:type="arc"
       sodipodi:cx="-1304.2858"
       sodipodi:cy="-544.7807"
       sodipodi:rx="30"
       sodipodi:ry="14.285714"
       sodipodi:start="0"
       sodipodi:end="5.2709816"
       d="m -1274.2858,-544.7807 a 30,14.285714 0 0 1 -22.4892,13.83076 30,14.285714 0 0 1 -33.75,-6.90545 30,14.285714 0 0 1 5.59,-17.28845 30,14.285714 0 0 1 36.549,-1.75117 l -15.8998,12.11431 z" />
    <path
       style="fill:#ffffff"
       id="path3412"
       sodipodi:type="arc"
       sodipodi:cx="-1354.2858"
       sodipodi:cy="-723.35205"
       sodipodi:rx="120"
       sodipodi:ry="175.71428"
       sodipodi:start="0"
       sodipodi:end="5.2709816"
       d="m -1234.2858,-723.35205 a 120,175.71428 0 0 1 -89.9569,170.11832 120,175.71428 0 0 1 -135,-84.93705 120,175.71428 0 0 1 22.3601,-212.64782 120,175.71428 0 0 1 146.196,-21.53949 l -63.5992,149.00604 z" />
    <path
       style="fill:#ffffff"
       id="path3414"
       sodipodi:type="arc"
       sodipodi:cx="-1704.2858"
       sodipodi:cy="-834.78064"
       sodipodi:rx="38.57143"
       sodipodi:ry="52.857143"
       sodipodi:start="0"
       sodipodi:end="5.2709816"
       d="m -1665.7143,-834.78064 a 38.57143,52.857143 0 0 1 -28.9148,51.17381 38.57143,52.857143 0 0 1 -43.3928,-25.55018 38.57143,52.857143 0 0 1 7.1871,-63.96723 38.57143,52.857143 0 0 1 46.9916,-6.47936 l -20.4426,44.82296 z" />
    <path
       style="fill:url(#linearGradient4224);fill-opacity:1"
       id="path3416"
       sodipodi:type="arc"
       sodipodi:cx="-4408.5713"
       sodipodi:cy="-4690.4951"
       sodipodi:rx="508.57144"
       sodipodi:ry="462.85715"
       sodipodi:start="0"
       sodipodi:end="5.4759906"
       d="m -3899.9998,-4690.4951 a 508.57144,462.85715 0 0 1 -406.6376,453.4647 508.57144,462.85715 0 0 1 -569.6437,-271.6872 508.57144,462.85715 0 0 1 178.288,-562.3742 508.57144,462.85715 0 0 1 641.113,46.2518"
       sodipodi:open="true" />
    <g
       id="g4281"
       transform="translate(-8.5713571,1765.7143)">
      <path
         sodipodi:open="true"
         d="M 741.14734,-1168.7067 A 364.28571,364.28571 0 0 1 324.10885,-866.46138 364.28571,364.28571 0 0 1 21.651731,-1283.3463 364.28571,364.28571 0 0 1 438.38297,-1586.0151 364.28571,364.28571 0 0 1 741.26342,-1169.4377"
         sodipodi:end="0.15648133"
         sodipodi:start="0.15851301"
         sodipodi:ry="364.28571"
         sodipodi:rx="364.28571"
         sodipodi:cy="-1226.2092"
         sodipodi:cx="381.42865"
         sodipodi:type="arc"
         id="path4226"
         style="fill:#0079e3;fill-opacity:0.72248804;stroke:#2d36c3;stroke-width:16;stroke-linejoin:round;stroke-miterlimit:4;stroke-dasharray:none;stroke-opacity:1" />
      <flowRoot
         transform="translate(1085.7142,-1502.8571)"
         style="font-style:normal;font-weight:normal;font-size:180px;line-height:125%;font-family:sans-serif;letter-spacing:0px;word-spacing:0px;fill:#000000;fill-opacity:1;stroke:none;stroke-width:1px;stroke-linecap:butt;stroke-linejoin:miter;stroke-opacity:1"
         id="flowRoot4250"
         xml:space="preserve"><flowRegion
           id="flowRegion4252"><rect
             style="font-size:180px"
             y="149.50507"
             x="-785.71429"
             height="214.28571"
             width="225.71429"
             id="rect4254" /></flowRegion><flowPara
           style="fill:#ffffff"
           id="flowPara4256">M</flowPara></flowRoot>    </g>
  </g>
</svg>
